<svg width="16" height="16" viewBox="0 0 16 16" fill="none" xmlns="http://www.w3.org/2000/svg">
<path d="M6.37312 4.16001H6.26645C6.32512 4.16001 6.37312 4.11201 6.37312 4.05335V4.16001H10.4265V4.05335C10.4265 4.11201 10.4745 4.16001 10.5331 4.16001H10.4265V5.12001H11.3865V4.05335C11.3865 3.58268 11.0038 3.20001 10.5331 3.20001H6.26645C5.79578 3.20001 5.41312 3.58268 5.41312 4.05335V5.12001H6.37312V4.16001ZM13.0931 5.12001H3.70645C3.47045 5.12001 3.27979 5.31068 3.27979 5.54668V5.97335C3.27979 6.03201 3.32779 6.08001 3.38645 6.08001H4.19179L4.52112 13.0533C4.54245 13.508 4.91845 13.8667 5.37312 13.8667H11.4265C11.8825 13.8667 12.2571 13.5093 12.2785 13.0533L12.6078 6.08001H13.4131C13.4718 6.08001 13.5198 6.03201 13.5198 5.97335V5.54668C13.5198 5.31068 13.3291 5.12001 13.0931 5.12001ZM11.3238 12.9067H5.47579L5.15312 6.08001H11.6465L11.3238 12.9067Z" fill="#353535"/>
</svg>
