<svg width="18" height="19" viewBox="0 0 18 19" fill="none" xmlns="http://www.w3.org/2000/svg">
<path d="M0.75 0.5C0.551088 0.5 0.360322 0.579018 0.21967 0.71967C0.0790178 0.860322 0 1.05109 0 1.25C0 1.44891 0.0790178 1.63968 0.21967 1.78033C0.360322 1.92098 0.551088 2 0.75 2H1.119C1.28186 2.00028 1.4402 2.05357 1.57009 2.1518C1.69999 2.25003 1.79438 2.38788 1.839 2.5445L4.218 10.8695C4.35255 11.3393 4.63641 11.7525 5.02665 12.0467C5.41689 12.3409 5.8923 12.5 6.381 12.5H13.2345C13.6843 12.5001 14.1237 12.3654 14.4962 12.1132C14.8686 11.8611 15.157 11.5031 15.324 11.0855L17.535 5.5565C17.6259 5.32899 17.6597 5.08268 17.6334 4.8391C17.6071 4.59551 17.5216 4.36208 17.3842 4.15919C17.2469 3.9563 17.062 3.79014 16.8456 3.67523C16.6292 3.56032 16.388 3.50015 16.143 3.5H3.672L3.2805 2.132C3.14629 1.66216 2.86277 1.24878 2.47281 0.954345C2.08285 0.65991 1.60763 0.500427 1.119 0.5H0.75ZM5.661 10.4555L4.101 5H16.1415L13.9305 10.529C13.8748 10.668 13.7787 10.7872 13.6547 10.8711C13.5306 10.9551 13.3843 11 13.2345 11H6.381C6.21814 10.9997 6.0598 10.9464 5.92991 10.8482C5.80001 10.75 5.70562 10.6121 5.661 10.4555ZM6.75 18.5C7.04547 18.5 7.33806 18.4418 7.61104 18.3287C7.88402 18.2157 8.13206 18.0499 8.34099 17.841C8.54992 17.6321 8.71566 17.384 8.82873 17.111C8.9418 16.8381 9 16.5455 9 16.25C9 15.9545 8.9418 15.6619 8.82873 15.389C8.71566 15.116 8.54992 14.8679 8.34099 14.659C8.13206 14.4501 7.88402 14.2843 7.61104 14.1713C7.33806 14.0582 7.04547 14 6.75 14C6.15326 14 5.58097 14.2371 5.15901 14.659C4.73705 15.081 4.5 15.6533 4.5 16.25C4.5 16.8467 4.73705 17.419 5.15901 17.841C5.58097 18.2629 6.15326 18.5 6.75 18.5ZM6.75 17C6.55109 17 6.36032 16.921 6.21967 16.7803C6.07902 16.6397 6 16.4489 6 16.25C6 16.0511 6.07902 15.8603 6.21967 15.7197C6.36032 15.579 6.55109 15.5 6.75 15.5C6.94891 15.5 7.13968 15.579 7.28033 15.7197C7.42098 15.8603 7.5 16.0511 7.5 16.25C7.5 16.4489 7.42098 16.6397 7.28033 16.7803C7.13968 16.921 6.94891 17 6.75 17ZM12.75 18.5C13.0455 18.5 13.3381 18.4418 13.611 18.3287C13.884 18.2157 14.1321 18.0499 14.341 17.841C14.5499 17.6321 14.7157 17.384 14.8287 17.111C14.9418 16.8381 15 16.5455 15 16.25C15 15.9545 14.9418 15.6619 14.8287 15.389C14.7157 15.116 14.5499 14.8679 14.341 14.659C14.1321 14.4501 13.884 14.2843 13.611 14.1713C13.3381 14.0582 13.0455 14 12.75 14C12.1533 14 11.581 14.2371 11.159 14.659C10.7371 15.081 10.5 15.6533 10.5 16.25C10.5 16.8467 10.7371 17.419 11.159 17.841C11.581 18.2629 12.1533 18.5 12.75 18.5ZM12.75 17C12.5511 17 12.3603 16.921 12.2197 16.7803C12.079 16.6397 12 16.4489 12 16.25C12 16.0511 12.079 15.8603 12.2197 15.7197C12.3603 15.579 12.5511 15.5 12.75 15.5C12.9489 15.5 13.1397 15.579 13.2803 15.7197C13.421 15.8603 13.5 16.0511 13.5 16.25C13.5 16.4489 13.421 16.6397 13.2803 16.7803C13.1397 16.921 12.9489 17 12.75 17Z" fill="#111111"/>
</svg>
