<svg width="16" height="16" viewBox="0 0 16 16" fill="none" xmlns="http://www.w3.org/2000/svg">
<path d="M6.37336 4.16001H6.2667C6.32536 4.16001 6.37336 4.11201 6.37336 4.05335V4.16001H10.4267V4.05335C10.4267 4.11201 10.4747 4.16001 10.5334 4.16001H10.4267V5.12001H11.3867V4.05335C11.3867 3.58268 11.004 3.20001 10.5334 3.20001H6.2667C5.79603 3.20001 5.41336 3.58268 5.41336 4.05335V5.12001H6.37336V4.16001ZM13.0934 5.12001H3.7067C3.4707 5.12001 3.28003 5.31068 3.28003 5.54668V5.97335C3.28003 6.03201 3.32803 6.08001 3.3867 6.08001H4.19203L4.52136 13.0533C4.5427 13.508 4.9187 13.8667 5.37336 13.8667H11.4267C11.8827 13.8667 12.2574 13.5093 12.2787 13.0533L12.608 6.08001H13.4134C13.472 6.08001 13.52 6.03201 13.52 5.97335V5.54668C13.52 5.31068 13.3294 5.12001 13.0934 5.12001ZM11.324 12.9067H5.47603L5.15336 6.08001H11.6467L11.324 12.9067Z" fill="#353535"/>
</svg>
