<svg width="16" height="16" viewBox="0 0 16 16" fill="none" xmlns="http://www.w3.org/2000/svg">
<path d="M8.73616 11.3288H7.12976C6.08016 11.3288 5.22896 10.4456 5.22896 9.35757C5.22896 9.09517 5.44656 8.87757 5.70896 8.87757C5.97136 8.87757 6.18896 9.09517 6.18896 9.35757C6.18896 9.91437 6.61136 10.3688 7.12976 10.3688H8.73616C9.15216 10.3688 9.49776 9.99757 9.49776 9.54957C9.49776 8.99277 9.29936 8.88397 8.97296 8.76877L6.39376 7.85997C5.89456 7.68717 5.22256 7.31597 5.22256 6.17037C5.22256 5.18477 5.99696 4.39117 6.94416 4.39117H8.55056C9.60016 4.39117 10.4514 5.27437 10.4514 6.36237C10.4514 6.62477 10.2338 6.84237 9.97136 6.84237C9.70896 6.84237 9.49136 6.62477 9.49136 6.36237C9.49136 5.80557 9.06896 5.35117 8.55056 5.35117H6.94416C6.52816 5.35117 6.18256 5.72237 6.18256 6.17037C6.18256 6.72717 6.38096 6.83597 6.70736 6.95117L9.28656 7.85997C9.78576 8.03277 10.4578 8.40397 10.4578 9.54957C10.4514 10.5288 9.68336 11.3288 8.73616 11.3288Z" fill="#353535"/>
<path d="M7.84015 12.18C7.57775 12.18 7.36015 11.9624 7.36015 11.7V4.01998C7.36015 3.75758 7.57775 3.53998 7.84015 3.53998C8.10255 3.53998 8.32015 3.75758 8.32015 4.01998V11.7C8.32015 11.9624 8.10255 12.18 7.84015 12.18Z" fill="#353535"/>
<path d="M7.84016 14.74C4.04496 14.74 0.960159 11.6552 0.960159 7.85998C0.960159 4.06478 4.04496 0.97998 7.84016 0.97998C11.6354 0.97998 14.7202 4.06478 14.7202 7.85998C14.7202 11.6552 11.6354 14.74 7.84016 14.74ZM7.84016 1.93998C4.57616 1.93998 1.92016 4.59598 1.92016 7.85998C1.92016 11.124 4.57616 13.78 7.84016 13.78C11.1042 13.78 13.7602 11.124 13.7602 7.85998C13.7602 4.59598 11.1042 1.93998 7.84016 1.93998Z" fill="#353535"/>
</svg>
