<svg width="16" height="15" viewBox="0 0 16 15" fill="none" xmlns="http://www.w3.org/2000/svg">
<g clip-path="url(#clip0_929_6327)">
<path d="M11.1743 9.5791L12.063 8.69034C12.2019 8.55148 12.4435 8.64868 12.4435 8.84865V12.8869C12.4435 13.6229 11.8464 14.2201 11.1104 14.2201H1.33411C0.598107 14.2201 0.000976562 13.6229 0.000976562 12.8869V3.11064C0.000976562 2.37464 0.598107 1.77751 1.33411 1.77751H8.93016C9.12736 1.77751 9.22734 2.01637 9.08847 2.15801L8.19972 3.04676C8.15806 3.08842 8.10251 3.11064 8.04141 3.11064H1.33411V12.8869H11.1104V9.73463C11.1104 9.6763 11.1326 9.62076 11.1743 9.5791ZM15.5236 3.9744L8.23027 11.2677L5.71954 11.5455C4.99188 11.626 4.37253 11.0122 4.45307 10.279L4.73081 7.76826L12.0241 0.474935C12.6601 -0.161079 13.6878 -0.161079 14.321 0.474935L15.5208 1.67475C16.1568 2.31076 16.1568 3.34116 15.5236 3.9744ZM12.7796 4.8326L11.1659 3.21896L6.00561 8.38206L5.80286 10.1957L7.61648 9.99292L12.7796 4.8326ZM14.5793 2.61905L13.3795 1.41923C13.2656 1.30536 13.0795 1.30536 12.9684 1.41923L12.1102 2.27744L13.7239 3.89108L14.5821 3.03288C14.6932 2.91623 14.6932 2.73292 14.5793 2.61905Z" fill="#149C08"/>
</g>
<defs>
<clipPath id="clip0_929_6327">
<rect width="16" height="14.22" fill="white"/>
</clipPath>
</defs>
</svg>
