<svg width="12" height="12" viewBox="0 0 12 12" fill="none" xmlns="http://www.w3.org/2000/svg">
<path d="M2.76999 9.76003C2.46499 9.76003 2.17999 9.65502 1.97499 9.46002C1.71499 9.21502 1.58999 8.84502 1.63499 8.44502L1.81999 6.82502C1.85499 6.52002 2.03999 6.11502 2.25499 5.89502L6.35999 1.55002C7.38499 0.465024 8.45499 0.435025 9.53999 1.46002C10.625 2.48502 10.655 3.55502 9.62999 4.64002L5.52499 8.98502C5.31499 9.21002 4.92499 9.42003 4.61999 9.47003L3.00999 9.74502C2.92499 9.75002 2.84999 9.76003 2.76999 9.76003ZM7.96499 1.45502C7.57999 1.45502 7.24499 1.69502 6.90499 2.05502L2.79999 6.40503C2.69999 6.51003 2.58499 6.76003 2.56499 6.90503L2.37999 8.52502C2.35999 8.69002 2.39999 8.82502 2.48999 8.91002C2.57999 8.99502 2.71499 9.02502 2.87999 9.00002L4.48999 8.72503C4.63499 8.70003 4.87499 8.57002 4.97499 8.46502L9.07999 4.12002C9.69999 3.46002 9.92499 2.85002 9.01999 2.00002C8.61999 1.61502 8.27499 1.45502 7.96499 1.45502Z" fill="#353535"/>
<path d="M8.67022 5.47499C8.66022 5.47499 8.64522 5.47499 8.63522 5.47499C7.07522 5.31999 5.82022 4.13499 5.58022 2.58499C5.55022 2.37999 5.69022 2.18999 5.89522 2.15499C6.10022 2.12499 6.29022 2.26499 6.32522 2.46999C6.51522 3.67999 7.49522 4.60999 8.71522 4.72999C8.92022 4.74999 9.07022 4.93499 9.05022 5.13999C9.02522 5.32999 8.86022 5.47499 8.67022 5.47499Z" fill="#353535"/>
<path d="M10.5 11.375H1.5C1.295 11.375 1.125 11.205 1.125 11C1.125 10.795 1.295 10.625 1.5 10.625H10.5C10.705 10.625 10.875 10.795 10.875 11C10.875 11.205 10.705 11.375 10.5 11.375Z" fill="#353535"/>
</svg>
