<svg width="20" height="18" viewBox="0 0 20 18" fill="none" xmlns="http://www.w3.org/2000/svg">
<path d="M19.1429 2.85713H6.57143M4.28571 2.85713H0.857143M19.1429 14.2857H6.57143M4.28571 14.2857H0.857143M13.4286 8.57141H0.857143M19.1429 8.57141H15.7143M5.42857 0.571411C5.73168 0.571411 6.02237 0.691819 6.23669 0.906146C6.45102 1.12047 6.57143 1.41116 6.57143 1.71427V3.99998C6.57143 4.30309 6.45102 4.59378 6.23669 4.8081C6.02237 5.02243 5.73168 5.14284 5.42857 5.14284C5.12547 5.14284 4.83478 5.02243 4.62045 4.8081C4.40612 4.59378 4.28571 4.30309 4.28571 3.99998V1.71427C4.28571 1.41116 4.40612 1.12047 4.62045 0.906146C4.83478 0.691819 5.12547 0.571411 5.42857 0.571411V0.571411ZM5.42857 12C5.73168 12 6.02237 12.1204 6.23669 12.3347C6.45102 12.549 6.57143 12.8397 6.57143 13.1428V15.4286C6.57143 15.7317 6.45102 16.0224 6.23669 16.2367C6.02237 16.451 5.73168 16.5714 5.42857 16.5714C5.12547 16.5714 4.83478 16.451 4.62045 16.2367C4.40612 16.0224 4.28571 15.7317 4.28571 15.4286V13.1428C4.28571 12.8397 4.40612 12.549 4.62045 12.3347C4.83478 12.1204 5.12547 12 5.42857 12ZM14.5714 6.2857C14.8745 6.2857 15.1652 6.40611 15.3796 6.62043C15.5939 6.83476 15.7143 7.12545 15.7143 7.42855V9.71427C15.7143 10.0174 15.5939 10.3081 15.3796 10.5224C15.1652 10.7367 14.8745 10.8571 14.5714 10.8571C14.2683 10.8571 13.9776 10.7367 13.7633 10.5224C13.549 10.3081 13.4286 10.0174 13.4286 9.71427V7.42855C13.4286 7.12545 13.549 6.83476 13.7633 6.62043C13.9776 6.40611 14.2683 6.2857 14.5714 6.2857V6.2857Z" stroke="#111111" stroke-width="1.14286" stroke-linecap="round" stroke-linejoin="round"/>
</svg>
