<svg width="14" height="12" viewBox="0 0 14 12" fill="none" xmlns="http://www.w3.org/2000/svg">
<path d="M6.59964 1.85284L7 2.38797L7.40035 1.85284C7.98375 1.07305 8.91823 0.56665 9.96 0.56665C11.7282 0.56665 13.1667 2.00712 13.1667 3.79332C13.1667 4.53227 13.0489 5.21373 12.8443 5.84607L12.8432 5.84933C12.3524 7.4027 11.3443 8.66045 10.2483 9.60245C9.15 10.5463 7.99207 11.1483 7.25227 11.4L7.25226 11.3999L7.24692 11.4018C7.20374 11.4171 7.11425 11.4333 7 11.4333C6.88574 11.4333 6.79625 11.4171 6.75307 11.4018L6.75308 11.4018L6.74772 11.4C6.00792 11.1483 4.84999 10.5463 3.75172 9.60245C2.65565 8.66045 1.64762 7.4027 1.15676 5.84933L1.15677 5.84932L1.15572 5.84607C0.951136 5.21373 0.833328 4.53227 0.833328 3.79332C0.833328 2.00712 2.2718 0.56665 4.03999 0.56665C5.08176 0.56665 6.01624 1.07305 6.59964 1.85284Z" stroke="#F81D1D"/>
</svg>
