<svg width="24" height="24" viewBox="0 0 24 24" fill="none" xmlns="http://www.w3.org/2000/svg">
<path d="M16.2 15.6C16.0409 15.6 15.8883 15.6632 15.7758 15.7757C15.6632 15.8882 15.6 16.0409 15.6 16.2C15.6 16.3591 15.6632 16.5117 15.7758 16.6243C15.8883 16.7368 16.0409 16.8 16.2 16.8H18.6C18.7592 16.8 18.9118 16.7368 19.0243 16.6243C19.1368 16.5117 19.2 16.3591 19.2 16.2C19.2 16.0409 19.1368 15.8882 19.0243 15.7757C18.9118 15.6632 18.7592 15.6 18.6 15.6H16.2ZM2.40002 8.09999C2.40002 7.22477 2.7477 6.38541 3.36657 5.76654C3.98544 5.14767 4.82481 4.79999 5.70002 4.79999H18.3C19.1752 4.79999 20.0146 5.14767 20.6335 5.76654C21.2523 6.38541 21.6 7.22477 21.6 8.09999V15.9C21.6 16.7752 21.2523 17.6146 20.6335 18.2334C20.0146 18.8523 19.1752 19.2 18.3 19.2H5.70002C4.82481 19.2 3.98544 18.8523 3.36657 18.2334C2.7477 17.6146 2.40002 16.7752 2.40002 15.9V8.09999ZM5.70002 5.99999C5.14307 5.99999 4.60893 6.22124 4.2151 6.61506C3.82127 7.00889 3.60002 7.54303 3.60002 8.09999V9.59999H20.4V8.09999C20.4 7.54303 20.1788 7.00889 19.7849 6.61506C19.3911 6.22124 18.857 5.99999 18.3 5.99999H5.70002ZM20.4 10.8H3.60002V15.9C3.60002 17.0592 4.54082 18 5.70002 18H18.3C18.857 18 19.3911 17.7787 19.7849 17.3849C20.1788 16.9911 20.4 16.4569 20.4 15.9V10.8Z" fill="#353535"/>
</svg>
