<svg width="16" height="16" viewBox="0 0 16 16" fill="none" xmlns="http://www.w3.org/2000/svg">
<path d="M8.10622 7.24665C8.03955 7.23998 7.95955 7.23998 7.88622 7.24665C6.29955 7.19331 5.03955 5.89331 5.03955 4.29331C5.03955 2.65998 6.35955 1.33331 7.99955 1.33331C9.63288 1.33331 10.9596 2.65998 10.9596 4.29331C10.9529 5.89331 9.69288 7.19331 8.10622 7.24665Z" stroke="#353535" stroke-width="1.5" stroke-linecap="round" stroke-linejoin="round"/>
<path d="M4.77299 9.70669C3.15965 10.7867 3.15965 12.5467 4.77299 13.62C6.60632 14.8467 9.61299 14.8467 11.4463 13.62C13.0597 12.54 13.0597 10.78 11.4463 9.70669C9.61966 8.48669 6.61299 8.48669 4.77299 9.70669Z" stroke="#353535" stroke-width="1.5" stroke-linecap="round" stroke-linejoin="round"/>
</svg>
