<svg width="20" height="20" viewBox="0 0 20 20" fill="none" xmlns="http://www.w3.org/2000/svg">
<path d="M10.8333 9.29169H5.83334" stroke="#149C08" stroke-width="1.5" stroke-linecap="round" stroke-linejoin="round"/>
<path d="M1.66666 9.2917V5.4417C1.66666 3.7417 3.04166 2.3667 4.74166 2.3667H9.42499C11.125 2.3667 12.5 3.42503 12.5 5.12503" stroke="#149C08" stroke-width="1.5" stroke-linecap="round" stroke-linejoin="round"/>
<path d="M14.5666 10.1667C14.15 10.5667 13.95 11.1833 14.1167 11.8166C14.325 12.5916 15.0917 13.0833 15.8917 13.0833H16.6667V14.2917C16.6667 16.1333 15.175 17.625 13.3333 17.625H4.99999C3.15832 17.625 1.66666 16.1333 1.66666 14.2917V8.45833C1.66666 6.61667 3.15832 5.125 4.99999 5.125H13.3333C15.1667 5.125 16.6667 6.625 16.6667 8.45833V9.66663H15.7666C15.3 9.66663 14.875 9.84999 14.5666 10.1667Z" stroke="#149C08" stroke-width="1.5" stroke-linecap="round" stroke-linejoin="round"/>
<path d="M18.3333 10.5166V12.2333C18.3333 12.7 17.95 13.0833 17.475 13.0833H15.8667C14.9667 13.0833 14.1417 12.425 14.0667 11.525C14.0167 11 14.2167 10.5083 14.5667 10.1667C14.875 9.84999 15.3 9.66663 15.7667 9.66663H17.475C17.95 9.66663 18.3333 10.05 18.3333 10.5166Z" stroke="#149C08" stroke-width="1.5" stroke-linecap="round" stroke-linejoin="round"/>
</svg>
